<?xml version="1.0" encoding="UTF-8" standalone="no"?>
<!DOCTYPE svg PUBLIC "-//W3C//DTD SVG 1.1//EN"
 "http://www.w3.org/Graphics/SVG/1.1/DTD/svg11.dtd">
<!-- Generated by graphviz version 2.38.0 (20140413.2041)
 -->
<!-- Title: controllers_diagram Pages: 1 -->
<svg width="1427pt" height="1352pt"
 viewBox="0.00 0.00 1427.41 1352.12" xmlns="http://www.w3.org/2000/svg" xmlns:xlink="http://www.w3.org/1999/xlink">
<g id="graph0" class="graph" transform="scale(1 1) rotate(0) translate(609.725 641.514)">
<title>controllers_diagram</title>
<polygon fill="none" stroke="none" points="-609.725,710.602 -609.725,-641.514 817.688,-641.514 817.688,710.602 -609.725,710.602"/>
<!-- _diagram_info -->
<g id="node1" class="node"><title>_diagram_info</title>
<text text-anchor="start" x="614.312" y="-261.1" font-family="Times,serif" font-size="13.00">Controllers diagram</text>
<text text-anchor="start" x="614.312" y="-248.1" font-family="Times,serif" font-size="13.00">Date: Jan 06 2017 &#45; 10:26</text>
<text text-anchor="start" x="614.312" y="-235.1" font-family="Times,serif" font-size="13.00">Migration version: 20161228185350</text>
<text text-anchor="start" x="614.312" y="-222.1" font-family="Times,serif" font-size="13.00">Generated by RailRoady 1.5.2</text>
<text text-anchor="start" x="614.312" y="-209.1" font-family="Times,serif" font-size="13.00">http://railroady.prestonlee.com</text>
</g>
<!-- AdminController -->
<g id="node2" class="node"><title>AdminController</title>
<path fill="none" stroke="black" d="M-565.369,-66.9703C-565.369,-66.9703 -476.934,-66.9703 -476.934,-66.9703 -470.934,-66.9703 -464.934,-72.9703 -464.934,-78.9703 -464.934,-78.9703 -464.934,-144.97 -464.934,-144.97 -464.934,-150.97 -470.934,-156.97 -476.934,-156.97 -476.934,-156.97 -565.369,-156.97 -565.369,-156.97 -571.369,-156.97 -577.369,-150.97 -577.369,-144.97 -577.369,-144.97 -577.369,-78.9703 -577.369,-78.9703 -577.369,-72.9703 -571.369,-66.9703 -565.369,-66.9703"/>
<text text-anchor="middle" x="-521.151" y="-141.77" font-family="Times,serif" font-size="14.00">AdminController</text>
<polyline fill="none" stroke="black" points="-577.369,-134.97 -464.934,-134.97 "/>
<text text-anchor="start" x="-569.369" y="-119.77" font-family="Times,serif" font-size="14.00">index</text>
<polyline fill="none" stroke="black" points="-577.369,-112.97 -464.934,-112.97 "/>
<polyline fill="none" stroke="black" points="-577.369,-88.9703 -464.934,-88.9703 "/>
<text text-anchor="start" x="-569.369" y="-73.7703" font-family="Times,serif" font-size="14.00">_layout</text>
</g>
<!-- ApplicationController -->
<g id="node3" class="node"><title>ApplicationController</title>
<path fill="none" stroke="black" d="M-214.57,83.7741C-214.57,83.7741 -94.273,83.7741 -94.273,83.7741 -88.273,83.7741 -82.273,77.7741 -82.273,71.7741 -82.273,71.7741 -82.273,-50.2259 -82.273,-50.2259 -82.273,-56.2259 -88.273,-62.2259 -94.273,-62.2259 -94.273,-62.2259 -214.57,-62.2259 -214.57,-62.2259 -220.57,-62.2259 -226.57,-56.2259 -226.57,-50.2259 -226.57,-50.2259 -226.57,71.7741 -226.57,71.7741 -226.57,77.7741 -220.57,83.7741 -214.57,83.7741"/>
<text text-anchor="middle" x="-154.421" y="-47.0259" font-family="Times,serif" font-size="14.00">ApplicationController</text>
<polyline fill="none" stroke="black" points="-226.57,-40.2259 -82.273,-40.2259 "/>
<text text-anchor="start" x="-218.57" y="-25.0259" font-family="Times,serif" font-size="14.00">index</text>
<polyline fill="none" stroke="black" points="-226.57,-18.2259 -82.273,-18.2259 "/>
<polyline fill="none" stroke="black" points="-226.57,5.77406 -82.273,5.77406 "/>
<text text-anchor="start" x="-218.57" y="20.9741" font-family="Times,serif" font-size="14.00">_layout</text>
<text text-anchor="start" x="-218.57" y="34.9741" font-family="Times,serif" font-size="14.00">after_sign_in_path_for</text>
<text text-anchor="start" x="-218.57" y="48.9741" font-family="Times,serif" font-size="14.00">default_url_options</text>
<text text-anchor="start" x="-218.57" y="62.9741" font-family="Times,serif" font-size="14.00">set_locale</text>
<text text-anchor="start" x="-218.57" y="76.9741" font-family="Times,serif" font-size="14.00">user_not_authorized</text>
</g>
<!-- ApplicationController&#45;&gt;AdminController -->
<g id="edge1" class="edge"><title>ApplicationController&#45;&gt;AdminController</title>
<path fill="none" stroke="black" d="M-226.875,-13.4763C-296.7,-36.8465 -400.894,-71.7202 -464.746,-93.0914"/>
</g>
<!-- BusinessCategoriesController -->
<g id="node4" class="node"><title>BusinessCategoriesController</title>
<path fill="none" stroke="black" d="M-593.725,653.822C-593.725,653.822 -434.525,653.822 -434.525,653.822 -428.525,653.822 -422.525,647.822 -422.525,641.822 -422.525,641.822 -422.525,449.822 -422.525,449.822 -422.525,443.822 -428.525,437.822 -434.525,437.822 -434.525,437.822 -593.725,437.822 -593.725,437.822 -599.725,437.822 -605.725,443.822 -605.725,449.822 -605.725,449.822 -605.725,641.822 -605.725,641.822 -605.725,647.822 -599.725,653.822 -593.725,653.822"/>
<text text-anchor="middle" x="-514.125" y="453.022" font-family="Times,serif" font-size="14.00">BusinessCategoriesController</text>
<polyline fill="none" stroke="black" points="-605.725,459.822 -422.525,459.822 "/>
<text text-anchor="start" x="-597.725" y="475.022" font-family="Times,serif" font-size="14.00">index</text>
<text text-anchor="start" x="-597.725" y="489.022" font-family="Times,serif" font-size="14.00">destroy</text>
<text text-anchor="start" x="-597.725" y="503.022" font-family="Times,serif" font-size="14.00">edit</text>
<text text-anchor="start" x="-597.725" y="517.022" font-family="Times,serif" font-size="14.00">create</text>
<text text-anchor="start" x="-597.725" y="531.022" font-family="Times,serif" font-size="14.00">new</text>
<text text-anchor="start" x="-597.725" y="545.022" font-family="Times,serif" font-size="14.00">show</text>
<text text-anchor="start" x="-597.725" y="559.022" font-family="Times,serif" font-size="14.00">update</text>
<polyline fill="none" stroke="black" points="-605.725,565.822 -422.525,565.822 "/>
<polyline fill="none" stroke="black" points="-605.725,589.822 -422.525,589.822 "/>
<text text-anchor="start" x="-597.725" y="605.022" font-family="Times,serif" font-size="14.00">_layout</text>
<text text-anchor="start" x="-597.725" y="619.022" font-family="Times,serif" font-size="14.00">authorize_business_category</text>
<text text-anchor="start" x="-597.725" y="633.022" font-family="Times,serif" font-size="14.00">business_category_params</text>
<text text-anchor="start" x="-597.725" y="647.022" font-family="Times,serif" font-size="14.00">set_business_category</text>
</g>
<!-- ApplicationController&#45;&gt;BusinessCategoriesController -->
<g id="edge2" class="edge"><title>ApplicationController&#45;&gt;BusinessCategoriesController</title>
<path fill="none" stroke="black" d="M-203.682,84.0484C-265.061,175.347 -370.466,332.134 -441.21,437.364"/>
</g>
<!-- CompaniesController -->
<g id="node5" class="node"><title>CompaniesController</title>
<path fill="none" stroke="black" d="M-249.477,-300.89C-249.477,-300.89 -136.939,-300.89 -136.939,-300.89 -130.939,-300.89 -124.939,-306.89 -124.939,-312.89 -124.939,-312.89 -124.939,-490.89 -124.939,-490.89 -124.939,-496.89 -130.939,-502.89 -136.939,-502.89 -136.939,-502.89 -249.477,-502.89 -249.477,-502.89 -255.477,-502.89 -261.477,-496.89 -261.477,-490.89 -261.477,-490.89 -261.477,-312.89 -261.477,-312.89 -261.477,-306.89 -255.477,-300.89 -249.477,-300.89"/>
<text text-anchor="middle" x="-193.208" y="-487.69" font-family="Times,serif" font-size="14.00">CompaniesController</text>
<polyline fill="none" stroke="black" points="-261.477,-480.89 -124.939,-480.89 "/>
<text text-anchor="start" x="-253.477" y="-465.69" font-family="Times,serif" font-size="14.00">create</text>
<text text-anchor="start" x="-253.477" y="-451.69" font-family="Times,serif" font-size="14.00">edit</text>
<text text-anchor="start" x="-253.477" y="-437.69" font-family="Times,serif" font-size="14.00">index</text>
<text text-anchor="start" x="-253.477" y="-423.69" font-family="Times,serif" font-size="14.00">new</text>
<text text-anchor="start" x="-253.477" y="-409.69" font-family="Times,serif" font-size="14.00">show</text>
<text text-anchor="start" x="-253.477" y="-395.69" font-family="Times,serif" font-size="14.00">update</text>
<polyline fill="none" stroke="black" points="-261.477,-388.89 -124.939,-388.89 "/>
<polyline fill="none" stroke="black" points="-261.477,-364.89 -124.939,-364.89 "/>
<text text-anchor="start" x="-253.477" y="-349.69" font-family="Times,serif" font-size="14.00">_layout</text>
<text text-anchor="start" x="-253.477" y="-335.69" font-family="Times,serif" font-size="14.00">authorize_company</text>
<text text-anchor="start" x="-253.477" y="-321.69" font-family="Times,serif" font-size="14.00">company_params</text>
<text text-anchor="start" x="-253.477" y="-307.69" font-family="Times,serif" font-size="14.00">set_company</text>
</g>
<!-- ApplicationController&#45;&gt;CompaniesController -->
<g id="edge3" class="edge"><title>ApplicationController&#45;&gt;CompaniesController</title>
<path fill="none" stroke="black" d="M-161.311,-62.5265C-167.537,-128.766 -176.76,-226.894 -183.69,-300.617"/>
</g>
<!-- MembershipApplicationsController -->
<g id="node6" class="node"><title>MembershipApplicationsController</title>
<path fill="none" stroke="black" d="M4.61479,-365.014C4.61479,-365.014 196.47,-365.014 196.47,-365.014 202.47,-365.014 208.47,-371.014 208.47,-377.014 208.47,-377.014 208.47,-625.014 208.47,-625.014 208.47,-631.014 202.47,-637.014 196.47,-637.014 196.47,-637.014 4.61479,-637.014 4.61479,-637.014 -1.38521,-637.014 -7.38521,-631.014 -7.38521,-625.014 -7.38521,-625.014 -7.38521,-377.014 -7.38521,-377.014 -7.38521,-371.014 -1.38521,-365.014 4.61479,-365.014"/>
<text text-anchor="middle" x="100.543" y="-621.814" font-family="Times,serif" font-size="14.00">MembershipApplicationsController</text>
<polyline fill="none" stroke="black" points="-7.38521,-615.014 208.47,-615.014 "/>
<text text-anchor="start" x="0.61479" y="-599.814" font-family="Times,serif" font-size="14.00">update</text>
<text text-anchor="start" x="0.61479" y="-585.814" font-family="Times,serif" font-size="14.00">destroy</text>
<text text-anchor="start" x="0.61479" y="-571.814" font-family="Times,serif" font-size="14.00">edit</text>
<text text-anchor="start" x="0.61479" y="-557.814" font-family="Times,serif" font-size="14.00">index</text>
<text text-anchor="start" x="0.61479" y="-543.814" font-family="Times,serif" font-size="14.00">information</text>
<text text-anchor="start" x="0.61479" y="-529.814" font-family="Times,serif" font-size="14.00">new</text>
<text text-anchor="start" x="0.61479" y="-515.814" font-family="Times,serif" font-size="14.00">show</text>
<text text-anchor="start" x="0.61479" y="-501.814" font-family="Times,serif" font-size="14.00">create</text>
<polyline fill="none" stroke="black" points="-7.38521,-495.014 208.47,-495.014 "/>
<polyline fill="none" stroke="black" points="-7.38521,-471.014 208.47,-471.014 "/>
<text text-anchor="start" x="0.61479" y="-455.814" font-family="Times,serif" font-size="14.00">changed_to_accepted?</text>
<text text-anchor="start" x="0.61479" y="-441.814" font-family="Times,serif" font-size="14.00">accept_application</text>
<text text-anchor="start" x="0.61479" y="-427.814" font-family="Times,serif" font-size="14.00">authorize_membership_application</text>
<text text-anchor="start" x="0.61479" y="-413.814" font-family="Times,serif" font-size="14.00">_layout</text>
<text text-anchor="start" x="0.61479" y="-399.814" font-family="Times,serif" font-size="14.00">get_membership_application</text>
<text text-anchor="start" x="0.61479" y="-385.814" font-family="Times,serif" font-size="14.00">membership_application_params</text>
<text text-anchor="start" x="0.61479" y="-371.814" font-family="Times,serif" font-size="14.00">new_upload_file</text>
</g>
<!-- ApplicationController&#45;&gt;MembershipApplicationsController -->
<g id="edge4" class="edge"><title>ApplicationController&#45;&gt;MembershipApplicationsController</title>
<path fill="none" stroke="black" d="M-118.027,-62.2808C-78.8483,-140.924 -15.6436,-267.794 32.7448,-364.924"/>
</g>
<!-- PagesController -->
<g id="node7" class="node"><title>PagesController</title>
<path fill="none" stroke="black" d="M-578.82,-422.141C-578.82,-422.141 -478.737,-422.141 -478.737,-422.141 -472.737,-422.141 -466.737,-428.141 -466.737,-434.141 -466.737,-434.141 -466.737,-514.141 -466.737,-514.141 -466.737,-520.141 -472.737,-526.141 -478.737,-526.141 -478.737,-526.141 -578.82,-526.141 -578.82,-526.141 -584.82,-526.141 -590.82,-520.141 -590.82,-514.141 -590.82,-514.141 -590.82,-434.141 -590.82,-434.141 -590.82,-428.141 -584.82,-422.141 -578.82,-422.141"/>
<text text-anchor="middle" x="-528.779" y="-510.941" font-family="Times,serif" font-size="14.00">PagesController</text>
<polyline fill="none" stroke="black" points="-590.82,-504.141 -466.737,-504.141 "/>
<polyline fill="none" stroke="black" points="-590.82,-480.141 -466.737,-480.141 "/>
<text text-anchor="start" x="-582.82" y="-464.941" font-family="Times,serif" font-size="14.00">_layout_from_proc</text>
<polyline fill="none" stroke="black" points="-590.82,-458.141 -466.737,-458.141 "/>
<text text-anchor="start" x="-582.82" y="-442.941" font-family="Times,serif" font-size="14.00">_layout</text>
<text text-anchor="start" x="-582.82" y="-428.941" font-family="Times,serif" font-size="14.00">authorize_page</text>
</g>
<!-- ApplicationController&#45;&gt;PagesController -->
<g id="edge5" class="edge"><title>ApplicationController&#45;&gt;PagesController</title>
<path fill="none" stroke="black" d="M-210.872,-62.3476C-287.264,-161.301 -421.682,-335.416 -488.593,-422.086"/>
</g>
<!-- HighVoltage::PagesController -->
<g id="node8" class="node"><title>HighVoltage::PagesController</title>
<path fill="none" stroke="black" d="M-585.377,238.839C-585.377,238.839 -424.878,238.839 -424.878,238.839 -418.878,238.839 -412.878,232.839 -412.878,226.839 -412.878,226.839 -412.878,160.839 -412.878,160.839 -412.878,154.839 -418.878,148.839 -424.878,148.839 -424.878,148.839 -585.377,148.839 -585.377,148.839 -591.377,148.839 -597.377,154.839 -597.377,160.839 -597.377,160.839 -597.377,226.839 -597.377,226.839 -597.377,232.839 -591.377,238.839 -585.377,238.839"/>
<text text-anchor="middle" x="-505.128" y="164.039" font-family="Times,serif" font-size="14.00">HighVoltage::PagesController</text>
<polyline fill="none" stroke="black" points="-597.377,170.839 -412.878,170.839 "/>
<polyline fill="none" stroke="black" points="-597.377,194.839 -412.878,194.839 "/>
<text text-anchor="start" x="-589.377" y="210.039" font-family="Times,serif" font-size="14.00">_layout_from_proc</text>
<polyline fill="none" stroke="black" points="-597.377,216.839 -412.878,216.839 "/>
<text text-anchor="start" x="-589.377" y="232.039" font-family="Times,serif" font-size="14.00">_layout</text>
</g>
<!-- ApplicationController&#45;&gt;HighVoltage::PagesController -->
<g id="edge6" class="edge"><title>ApplicationController&#45;&gt;HighVoltage::PagesController</title>
<path fill="none" stroke="black" d="M-226.663,48.4833C-282.406,77.581 -359.712,117.933 -418.73,148.74"/>
</g>
<!-- DeviseController -->
<g id="node15" class="node"><title>DeviseController</title>
<path fill="none" stroke="black" d="M53.7793,366.453C53.7793,366.453 224.655,366.453 224.655,366.453 230.655,366.453 236.655,360.453 236.655,354.453 236.655,354.453 236.655,10.4534 236.655,10.4534 236.655,4.45342 230.655,-1.54658 224.655,-1.54658 224.655,-1.54658 53.7793,-1.54658 53.7793,-1.54658 47.7793,-1.54658 41.7793,4.45342 41.7793,10.4534 41.7793,10.4534 41.7793,354.453 41.7793,354.453 41.7793,360.453 47.7793,366.453 53.7793,366.453"/>
<text text-anchor="middle" x="139.217" y="13.6534" font-family="Times,serif" font-size="14.00">DeviseController</text>
<polyline fill="none" stroke="black" points="41.7793,20.4534 236.655,20.4534 "/>
<text text-anchor="start" x="49.7793" y="35.6534" font-family="Times,serif" font-size="14.00">_prefixes</text>
<polyline fill="none" stroke="black" points="41.7793,42.4534 236.655,42.4534 "/>
<text text-anchor="start" x="49.7793" y="57.6534" font-family="Times,serif" font-size="14.00">unknown_action!</text>
<text text-anchor="start" x="49.7793" y="71.6534" font-family="Times,serif" font-size="14.00">clean_up_passwords</text>
<text text-anchor="start" x="49.7793" y="85.6534" font-family="Times,serif" font-size="14.00">devise_i18n_options</text>
<text text-anchor="start" x="49.7793" y="99.6534" font-family="Times,serif" font-size="14.00">devise_mapping</text>
<text text-anchor="start" x="49.7793" y="113.653" font-family="Times,serif" font-size="14.00">find_message</text>
<text text-anchor="start" x="49.7793" y="127.653" font-family="Times,serif" font-size="14.00">navigational_formats</text>
<text text-anchor="start" x="49.7793" y="141.653" font-family="Times,serif" font-size="14.00">require_no_authentication</text>
<text text-anchor="start" x="49.7793" y="155.653" font-family="Times,serif" font-size="14.00">resource</text>
<text text-anchor="start" x="49.7793" y="169.653" font-family="Times,serif" font-size="14.00">resource=</text>
<text text-anchor="start" x="49.7793" y="183.653" font-family="Times,serif" font-size="14.00">resource_class</text>
<text text-anchor="start" x="49.7793" y="197.653" font-family="Times,serif" font-size="14.00">resource_name</text>
<text text-anchor="start" x="49.7793" y="211.653" font-family="Times,serif" font-size="14.00">resource_params</text>
<text text-anchor="start" x="49.7793" y="225.653" font-family="Times,serif" font-size="14.00">respond_with_navigational</text>
<text text-anchor="start" x="49.7793" y="239.653" font-family="Times,serif" font-size="14.00">scope_name</text>
<text text-anchor="start" x="49.7793" y="253.653" font-family="Times,serif" font-size="14.00">set_flash_message</text>
<text text-anchor="start" x="49.7793" y="267.653" font-family="Times,serif" font-size="14.00">set_flash_message!</text>
<text text-anchor="start" x="49.7793" y="281.653" font-family="Times,serif" font-size="14.00">set_minimum_password_length</text>
<text text-anchor="start" x="49.7793" y="295.653" font-family="Times,serif" font-size="14.00">signed_in_resource</text>
<text text-anchor="start" x="49.7793" y="309.653" font-family="Times,serif" font-size="14.00">successfully_sent?</text>
<text text-anchor="start" x="49.7793" y="323.653" font-family="Times,serif" font-size="14.00">translation_scope</text>
<text text-anchor="start" x="49.7793" y="337.653" font-family="Times,serif" font-size="14.00">assert_is_devise_resource!</text>
<polyline fill="none" stroke="black" points="41.7793,344.453 236.655,344.453 "/>
<text text-anchor="start" x="49.7793" y="359.653" font-family="Times,serif" font-size="14.00">_layout</text>
</g>
<!-- ApplicationController&#45;&gt;DeviseController -->
<g id="edge13" class="edge"><title>ApplicationController&#45;&gt;DeviseController</title>
<path fill="none" stroke="black" d="M-82.2132,52.9914C-44.8546,74.8336 1.28197,101.808 41.7554,125.471"/>
</g>
<!-- Devise::ConfirmationsController -->
<g id="node9" class="node"><title>Devise::ConfirmationsController</title>
<path fill="none" stroke="black" d="M355.437,98.0896C355.437,98.0896 639.81,98.0896 639.81,98.0896 645.81,98.0896 651.81,92.0896 651.81,86.0896 651.81,86.0896 651.81,-33.9104 651.81,-33.9104 651.81,-39.9104 645.81,-45.9104 639.81,-45.9104 639.81,-45.9104 355.437,-45.9104 355.437,-45.9104 349.437,-45.9104 343.437,-39.9104 343.437,-33.9104 343.437,-33.9104 343.437,86.0896 343.437,86.0896 343.437,92.0896 349.437,98.0896 355.437,98.0896"/>
<text text-anchor="middle" x="497.623" y="-30.7104" font-family="Times,serif" font-size="14.00">Devise::ConfirmationsController</text>
<polyline fill="none" stroke="black" points="343.437,-23.9104 651.81,-23.9104 "/>
<text text-anchor="start" x="351.437" y="-8.71044" font-family="Times,serif" font-size="14.00">create</text>
<text text-anchor="start" x="351.437" y="5.28956" font-family="Times,serif" font-size="14.00">new</text>
<text text-anchor="start" x="351.437" y="19.2896" font-family="Times,serif" font-size="14.00">show</text>
<polyline fill="none" stroke="black" points="343.437,26.0896 651.81,26.0896 "/>
<text text-anchor="start" x="351.437" y="41.2896" font-family="Times,serif" font-size="14.00">after_confirmation_path_for</text>
<text text-anchor="start" x="351.437" y="55.2896" font-family="Times,serif" font-size="14.00">after_resending_confirmation_instructions_path_for</text>
<text text-anchor="start" x="351.437" y="69.2896" font-family="Times,serif" font-size="14.00">translation_scope</text>
<polyline fill="none" stroke="black" points="343.437,76.0896 651.81,76.0896 "/>
<text text-anchor="start" x="351.437" y="91.2896" font-family="Times,serif" font-size="14.00">_layout</text>
</g>
<!-- Devise::OmniauthCallbacksController -->
<g id="node10" class="node"><title>Devise::OmniauthCallbacksController</title>
<path fill="none" stroke="black" d="M-268.44,528.566C-268.44,528.566 -61.0401,528.566 -61.0401,528.566 -55.0401,528.566 -49.0401,522.566 -49.0401,516.566 -49.0401,516.566 -49.0401,396.566 -49.0401,396.566 -49.0401,390.566 -55.0401,384.566 -61.0401,384.566 -61.0401,384.566 -268.44,384.566 -268.44,384.566 -274.44,384.566 -280.44,390.566 -280.44,396.566 -280.44,396.566 -280.44,516.566 -280.44,516.566 -280.44,522.566 -274.44,528.566 -268.44,528.566"/>
<text text-anchor="middle" x="-164.74" y="399.766" font-family="Times,serif" font-size="14.00">Devise::OmniauthCallbacksController</text>
<polyline fill="none" stroke="black" points="-280.44,406.566 -49.0401,406.566 "/>
<text text-anchor="start" x="-272.44" y="421.766" font-family="Times,serif" font-size="14.00">failure</text>
<text text-anchor="start" x="-272.44" y="435.766" font-family="Times,serif" font-size="14.00">passthru</text>
<polyline fill="none" stroke="black" points="-280.44,442.566 -49.0401,442.566 "/>
<text text-anchor="start" x="-272.44" y="457.766" font-family="Times,serif" font-size="14.00">after_omniauth_failure_path_for</text>
<text text-anchor="start" x="-272.44" y="471.766" font-family="Times,serif" font-size="14.00">failed_strategy</text>
<text text-anchor="start" x="-272.44" y="485.766" font-family="Times,serif" font-size="14.00">failure_message</text>
<text text-anchor="start" x="-272.44" y="499.766" font-family="Times,serif" font-size="14.00">translation_scope</text>
<polyline fill="none" stroke="black" points="-280.44,506.566 -49.0401,506.566 "/>
<text text-anchor="start" x="-272.44" y="521.766" font-family="Times,serif" font-size="14.00">_layout</text>
</g>
<!-- Devise::PasswordsController -->
<g id="node11" class="node"><title>Devise::PasswordsController</title>
<path fill="none" stroke="black" d="M349.032,573.073C349.032,573.073 637.295,573.073 637.295,573.073 643.295,573.073 649.295,567.073 649.295,561.073 649.295,561.073 649.295,399.073 649.295,399.073 649.295,393.073 643.295,387.073 637.295,387.073 637.295,387.073 349.032,387.073 349.032,387.073 343.032,387.073 337.032,393.073 337.032,399.073 337.032,399.073 337.032,561.073 337.032,561.073 337.032,567.073 343.032,573.073 349.032,573.073"/>
<text text-anchor="middle" x="493.163" y="402.273" font-family="Times,serif" font-size="14.00">Devise::PasswordsController</text>
<polyline fill="none" stroke="black" points="337.032,409.073 649.295,409.073 "/>
<text text-anchor="start" x="345.032" y="424.273" font-family="Times,serif" font-size="14.00">create</text>
<text text-anchor="start" x="345.032" y="438.273" font-family="Times,serif" font-size="14.00">edit</text>
<text text-anchor="start" x="345.032" y="452.273" font-family="Times,serif" font-size="14.00">new</text>
<text text-anchor="start" x="345.032" y="466.273" font-family="Times,serif" font-size="14.00">update</text>
<polyline fill="none" stroke="black" points="337.032,473.073 649.295,473.073 "/>
<text text-anchor="start" x="345.032" y="488.273" font-family="Times,serif" font-size="14.00">after_resetting_password_path_for</text>
<text text-anchor="start" x="345.032" y="502.273" font-family="Times,serif" font-size="14.00">after_sending_reset_password_instructions_path_for</text>
<text text-anchor="start" x="345.032" y="516.273" font-family="Times,serif" font-size="14.00">assert_reset_token_passed</text>
<text text-anchor="start" x="345.032" y="530.273" font-family="Times,serif" font-size="14.00">translation_scope</text>
<text text-anchor="start" x="345.032" y="544.273" font-family="Times,serif" font-size="14.00">unlockable?</text>
<polyline fill="none" stroke="black" points="337.032,551.073 649.295,551.073 "/>
<text text-anchor="start" x="345.032" y="566.273" font-family="Times,serif" font-size="14.00">_layout</text>
</g>
<!-- Devise::RegistrationsController -->
<g id="node12" class="node"><title>Devise::RegistrationsController</title>
<path fill="none" stroke="black" d="M43.4268,706.102C43.4268,706.102 218.145,706.102 218.145,706.102 224.145,706.102 230.145,700.102 230.145,694.102 230.145,694.102 230.145,420.102 230.145,420.102 230.145,414.102 224.145,408.102 218.145,408.102 218.145,408.102 43.4268,408.102 43.4268,408.102 37.4268,408.102 31.4268,414.102 31.4268,420.102 31.4268,420.102 31.4268,694.102 31.4268,694.102 31.4268,700.102 37.4268,706.102 43.4268,706.102"/>
<text text-anchor="middle" x="130.786" y="423.302" font-family="Times,serif" font-size="14.00">Devise::RegistrationsController</text>
<polyline fill="none" stroke="black" points="31.4268,430.102 230.145,430.102 "/>
<text text-anchor="start" x="39.4268" y="445.302" font-family="Times,serif" font-size="14.00">cancel</text>
<text text-anchor="start" x="39.4268" y="459.302" font-family="Times,serif" font-size="14.00">create</text>
<text text-anchor="start" x="39.4268" y="473.302" font-family="Times,serif" font-size="14.00">destroy</text>
<text text-anchor="start" x="39.4268" y="487.302" font-family="Times,serif" font-size="14.00">edit</text>
<text text-anchor="start" x="39.4268" y="501.302" font-family="Times,serif" font-size="14.00">new</text>
<text text-anchor="start" x="39.4268" y="515.302" font-family="Times,serif" font-size="14.00">update</text>
<polyline fill="none" stroke="black" points="31.4268,522.102 230.145,522.102 "/>
<text text-anchor="start" x="39.4268" y="537.302" font-family="Times,serif" font-size="14.00">update_resource</text>
<text text-anchor="start" x="39.4268" y="551.302" font-family="Times,serif" font-size="14.00">after_inactive_sign_up_path_for</text>
<text text-anchor="start" x="39.4268" y="565.302" font-family="Times,serif" font-size="14.00">after_sign_up_path_for</text>
<text text-anchor="start" x="39.4268" y="579.302" font-family="Times,serif" font-size="14.00">after_update_path_for</text>
<text text-anchor="start" x="39.4268" y="593.302" font-family="Times,serif" font-size="14.00">authenticate_scope!</text>
<text text-anchor="start" x="39.4268" y="607.302" font-family="Times,serif" font-size="14.00">build_resource</text>
<text text-anchor="start" x="39.4268" y="621.302" font-family="Times,serif" font-size="14.00">sign_up</text>
<text text-anchor="start" x="39.4268" y="635.302" font-family="Times,serif" font-size="14.00">sign_up_params</text>
<text text-anchor="start" x="39.4268" y="649.302" font-family="Times,serif" font-size="14.00">translation_scope</text>
<text text-anchor="start" x="39.4268" y="663.302" font-family="Times,serif" font-size="14.00">update_needs_confirmation?</text>
<text text-anchor="start" x="39.4268" y="677.302" font-family="Times,serif" font-size="14.00">account_update_params</text>
<polyline fill="none" stroke="black" points="31.4268,684.102 230.145,684.102 "/>
<text text-anchor="start" x="39.4268" y="699.302" font-family="Times,serif" font-size="14.00">_layout</text>
</g>
<!-- Devise::SessionsController -->
<g id="node13" class="node"><title>Devise::SessionsController</title>
<path fill="none" stroke="black" d="M81.3875,-54.4141C81.3875,-54.4141 225.822,-54.4141 225.822,-54.4141 231.822,-54.4141 237.822,-60.4141 237.822,-66.4141 237.822,-66.4141 237.822,-242.414 237.822,-242.414 237.822,-248.414 231.822,-254.414 225.822,-254.414 225.822,-254.414 81.3875,-254.414 81.3875,-254.414 75.3875,-254.414 69.3875,-248.414 69.3875,-242.414 69.3875,-242.414 69.3875,-66.4141 69.3875,-66.4141 69.3875,-60.4141 75.3875,-54.4141 81.3875,-54.4141"/>
<text text-anchor="middle" x="153.605" y="-239.214" font-family="Times,serif" font-size="14.00">Devise::SessionsController</text>
<polyline fill="none" stroke="black" points="69.3875,-232.414 237.822,-232.414 "/>
<text text-anchor="start" x="77.3875" y="-217.214" font-family="Times,serif" font-size="14.00">create</text>
<text text-anchor="start" x="77.3875" y="-203.214" font-family="Times,serif" font-size="14.00">destroy</text>
<text text-anchor="start" x="77.3875" y="-189.214" font-family="Times,serif" font-size="14.00">new</text>
<polyline fill="none" stroke="black" points="69.3875,-182.414 237.822,-182.414 "/>
<text text-anchor="start" x="77.3875" y="-167.214" font-family="Times,serif" font-size="14.00">auth_options</text>
<text text-anchor="start" x="77.3875" y="-153.214" font-family="Times,serif" font-size="14.00">serialize_options</text>
<text text-anchor="start" x="77.3875" y="-139.214" font-family="Times,serif" font-size="14.00">sign_in_params</text>
<text text-anchor="start" x="77.3875" y="-125.214" font-family="Times,serif" font-size="14.00">translation_scope</text>
<polyline fill="none" stroke="black" points="69.3875,-118.414 237.822,-118.414 "/>
<text text-anchor="start" x="77.3875" y="-103.214" font-family="Times,serif" font-size="14.00">_layout</text>
<text text-anchor="start" x="77.3875" y="-89.2141" font-family="Times,serif" font-size="14.00">all_signed_out?</text>
<text text-anchor="start" x="77.3875" y="-75.2141" font-family="Times,serif" font-size="14.00">respond_to_on_destroy</text>
<text text-anchor="start" x="77.3875" y="-61.2141" font-family="Times,serif" font-size="14.00">verify_signed_out_user</text>
</g>
<!-- Devise::UnlocksController -->
<g id="node14" class="node"><title>Devise::UnlocksController</title>
<path fill="none" stroke="black" d="M366.181,-356.244C366.181,-356.244 606.236,-356.244 606.236,-356.244 612.236,-356.244 618.236,-362.244 618.236,-368.244 618.236,-368.244 618.236,-488.244 618.236,-488.244 618.236,-494.244 612.236,-500.244 606.236,-500.244 606.236,-500.244 366.181,-500.244 366.181,-500.244 360.181,-500.244 354.181,-494.244 354.181,-488.244 354.181,-488.244 354.181,-368.244 354.181,-368.244 354.181,-362.244 360.181,-356.244 366.181,-356.244"/>
<text text-anchor="middle" x="486.209" y="-485.044" font-family="Times,serif" font-size="14.00">Devise::UnlocksController</text>
<polyline fill="none" stroke="black" points="354.181,-478.244 618.236,-478.244 "/>
<text text-anchor="start" x="362.181" y="-463.044" font-family="Times,serif" font-size="14.00">create</text>
<text text-anchor="start" x="362.181" y="-449.044" font-family="Times,serif" font-size="14.00">new</text>
<text text-anchor="start" x="362.181" y="-435.044" font-family="Times,serif" font-size="14.00">show</text>
<polyline fill="none" stroke="black" points="354.181,-428.244 618.236,-428.244 "/>
<text text-anchor="start" x="362.181" y="-413.044" font-family="Times,serif" font-size="14.00">after_sending_unlock_instructions_path_for</text>
<text text-anchor="start" x="362.181" y="-399.044" font-family="Times,serif" font-size="14.00">after_unlock_path_for</text>
<text text-anchor="start" x="362.181" y="-385.044" font-family="Times,serif" font-size="14.00">translation_scope</text>
<polyline fill="none" stroke="black" points="354.181,-378.244 618.236,-378.244 "/>
<text text-anchor="start" x="362.181" y="-363.044" font-family="Times,serif" font-size="14.00">_layout</text>
</g>
<!-- DeviseController&#45;&gt;Devise::ConfirmationsController -->
<g id="edge7" class="edge"><title>DeviseController&#45;&gt;Devise::ConfirmationsController</title>
<path fill="none" stroke="black" d="M236.68,139.933C269.535,125.599 307.055,109.23 343.204,93.459"/>
</g>
<!-- DeviseController&#45;&gt;Devise::OmniauthCallbacksController -->
<g id="edge8" class="edge"><title>DeviseController&#45;&gt;Devise::OmniauthCallbacksController</title>
<path fill="none" stroke="black" d="M41.3701,270.693C0.586384,307.472 -46.1797,349.646 -84.8448,384.515"/>
</g>
<!-- DeviseController&#45;&gt;Devise::PasswordsController -->
<g id="edge9" class="edge"><title>DeviseController&#45;&gt;Devise::PasswordsController</title>
<path fill="none" stroke="black" d="M236.872,264.567C281.99,302.506 335.782,347.737 382.408,386.943"/>
</g>
<!-- DeviseController&#45;&gt;Devise::RegistrationsController -->
<g id="edge10" class="edge"><title>DeviseController&#45;&gt;Devise::RegistrationsController</title>
<path fill="none" stroke="black" d="M135.076,366.485C134.763,380.364 134.45,394.267 134.144,407.889"/>
</g>
<!-- DeviseController&#45;&gt;Devise::SessionsController -->
<g id="edge11" class="edge"><title>DeviseController&#45;&gt;Devise::SessionsController</title>
<path fill="none" stroke="black" d="M147.085,-1.75044C147.852,-19.722 148.609,-37.452 149.321,-54.1124"/>
</g>
<!-- DeviseController&#45;&gt;Devise::UnlocksController -->
<g id="edge12" class="edge"><title>DeviseController&#45;&gt;Devise::UnlocksController</title>
<path fill="none" stroke="black" d="M236.797,10.715C305.552,-110.292 394.121,-266.171 445.099,-355.892"/>
</g>
</g>
</svg>
