<?xml version="1.0" encoding="UTF-8" standalone="no"?>
<!DOCTYPE svg PUBLIC "-//W3C//DTD SVG 1.1//EN"
 "http://www.w3.org/Graphics/SVG/1.1/DTD/svg11.dtd">
<!-- Generated by graphviz version 2.38.0 (20140413.2041)
 -->
<!-- Title: models_diagram Pages: 1 -->
<svg width="420pt" height="369pt"
 viewBox="0.00 0.00 420.25 369.00" xmlns="http://www.w3.org/2000/svg" xmlns:xlink="http://www.w3.org/1999/xlink">
<g id="graph0" class="graph" transform="scale(1 1) rotate(0) translate(4 365)">
<title>models_diagram</title>
<polygon fill="none" stroke="none" points="-4,4 -4,-365 416.25,-365 416.25,4 -4,4"/>
<!-- _diagram_info -->
<g id="node1" class="node"><title>_diagram_info</title>
<text text-anchor="start" x="8" y="-346.6" font-family="Times,serif" font-size="13.00">Models diagram</text>
<text text-anchor="start" x="8" y="-333.6" font-family="Times,serif" font-size="13.00">Date: Jan 06 2017 &#45; 10:26</text>
<text text-anchor="start" x="8" y="-320.6" font-family="Times,serif" font-size="13.00">Migration version: 20161228185350</text>
<text text-anchor="start" x="8" y="-307.6" font-family="Times,serif" font-size="13.00">Generated by RailRoady 1.5.2</text>
<text text-anchor="start" x="8" y="-294.6" font-family="Times,serif" font-size="13.00">http://railroady.prestonlee.com</text>
</g>
<!-- ApplicationRecord -->
<g id="node2" class="node"><title>ApplicationRecord</title>
<ellipse fill="none" stroke="black" cx="302.688" cy="-324.5" rx="77.2916" ry="18"/>
<text text-anchor="middle" x="302.688" y="-320.3" font-family="Times,serif" font-size="14.00">ApplicationRecord</text>
</g>
<!-- BusinessCategory -->
<g id="node3" class="node"><title>BusinessCategory</title>
<ellipse fill="none" stroke="black" cx="168.688" cy="-234" rx="73.943" ry="18"/>
<text text-anchor="middle" x="168.688" y="-229.8" font-family="Times,serif" font-size="14.00">BusinessCategory</text>
</g>
<!-- ApplicationRecord&#45;&gt;BusinessCategory -->
<g id="edge3" class="edge"><title>ApplicationRecord&#45;&gt;BusinessCategory</title>
<path fill="none" stroke="black" d="M278.11,-307.268C253.932,-291.299 217.234,-267.062 193.11,-251.129"/>
</g>
<!-- Company -->
<g id="node4" class="node"><title>Company</title>
<ellipse fill="none" stroke="black" cx="270.688" cy="-162" rx="44.4923" ry="18"/>
<text text-anchor="middle" x="270.688" y="-157.8" font-family="Times,serif" font-size="14.00">Company</text>
</g>
<!-- ApplicationRecord&#45;&gt;Company -->
<g id="edge5" class="edge"><title>ApplicationRecord&#45;&gt;Company</title>
<path fill="none" stroke="black" d="M299.263,-306.324C293.104,-275.432 280.229,-210.855 274.088,-180.053"/>
</g>
<!-- MembershipApplication -->
<g id="node5" class="node"><title>MembershipApplication</title>
<ellipse fill="none" stroke="black" cx="270.688" cy="-90" rx="96.619" ry="18"/>
<text text-anchor="middle" x="270.688" y="-85.8" font-family="Times,serif" font-size="14.00">MembershipApplication</text>
</g>
<!-- ApplicationRecord&#45;&gt;MembershipApplication -->
<g id="edge7" class="edge"><title>ApplicationRecord&#45;&gt;MembershipApplication</title>
<path fill="none" stroke="black" d="M268.329,-308.178C252.736,-301.521 233.956,-293.912 216.688,-288 159.562,-268.443 122.292,-300.02 85.6877,-252 37.4847,-188.763 158.059,-132.11 226.818,-106.088"/>
</g>
<!-- Region -->
<g id="node6" class="node"><title>Region</title>
<ellipse fill="none" stroke="black" cx="334.688" cy="-234" rx="35.806" ry="18"/>
<text text-anchor="middle" x="334.688" y="-229.8" font-family="Times,serif" font-size="14.00">Region</text>
</g>
<!-- ApplicationRecord&#45;&gt;Region -->
<g id="edge9" class="edge"><title>ApplicationRecord&#45;&gt;Region</title>
<path fill="none" stroke="black" d="M308.858,-306.436C314.524,-290.765 322.876,-267.666 328.537,-252.011"/>
</g>
<!-- UploadedFile -->
<g id="node7" class="node"><title>UploadedFile</title>
<ellipse fill="none" stroke="black" cx="353.688" cy="-18" rx="58.491" ry="18"/>
<text text-anchor="middle" x="353.688" y="-13.8" font-family="Times,serif" font-size="14.00">UploadedFile</text>
</g>
<!-- ApplicationRecord&#45;&gt;UploadedFile -->
<g id="edge10" class="edge"><title>ApplicationRecord&#45;&gt;UploadedFile</title>
<path fill="none" stroke="black" d="M333.737,-307.885C354.734,-295.632 381.188,-276.55 395.688,-252 438.015,-180.332 387.1,-76.2555 363.97,-35.8849"/>
</g>
<!-- User -->
<g id="node8" class="node"><title>User</title>
<ellipse fill="none" stroke="black" cx="370.688" cy="-162" rx="27" ry="18"/>
<text text-anchor="middle" x="370.688" y="-157.8" font-family="Times,serif" font-size="14.00">User</text>
</g>
<!-- ApplicationRecord&#45;&gt;User -->
<g id="edge12" class="edge"><title>ApplicationRecord&#45;&gt;User</title>
<path fill="none" stroke="black" d="M329.118,-307.451C347.092,-294.873 369.406,-275.578 379.688,-252 389.993,-228.369 383.149,-197.962 377.064,-179.504"/>
</g>
<!-- BusinessCategory&#45;&gt;Company -->
<g id="edge2" class="edge"><title>BusinessCategory&#45;&gt;Company</title>
<path fill="none" stroke="#b53fe9" d="M200.724,-211.014C213.465,-202.271 228.047,-192.263 240.59,-183.655"/>
<polygon fill="#b53fe9" stroke="#b53fe9" points="200.59,-211.106 189.799,-213.054 196.468,-213.935 192.345,-216.765 192.345,-216.765 192.345,-216.765 196.468,-213.935 194.891,-220.475 200.59,-211.106 200.59,-211.106"/>
<polygon fill="#b53fe9" stroke="#b53fe9" points="240.655,-183.611 251.446,-181.663 244.777,-180.782 248.9,-177.952 248.9,-177.952 248.9,-177.952 244.777,-180.782 246.354,-174.242 240.655,-183.611 240.655,-183.611"/>
</g>
<!-- BusinessCategory&#45;&gt;MembershipApplication -->
<g id="edge1" class="edge"><title>BusinessCategory&#45;&gt;MembershipApplication</title>
<path fill="none" stroke="#9427ac" d="M180.642,-206.846C189.617,-188.461 202.869,-163.723 217.688,-144 225.443,-133.678 235.148,-123.395 244.127,-114.673"/>
<polygon fill="#9427ac" stroke="#9427ac" points="180.543,-207.054 172.173,-214.139 178.389,-211.566 176.234,-216.078 176.234,-216.078 176.234,-216.078 178.389,-211.566 180.295,-218.017 180.543,-207.054 180.543,-207.054"/>
<polygon fill="#9427ac" stroke="#9427ac" points="244.179,-114.623 254.534,-111.013 247.809,-111.184 251.439,-107.746 251.439,-107.746 251.439,-107.746 247.809,-111.184 248.344,-104.479 244.179,-114.623 244.179,-114.623"/>
</g>
<!-- Company&#45;&gt;MembershipApplication -->
<g id="edge4" class="edge"><title>Company&#45;&gt;MembershipApplication</title>
<path fill="none" stroke="#b3adb3" d="M270.688,-135.64C270.688,-130.063 270.688,-124.132 270.688,-118.476"/>
<ellipse fill="none" stroke="#b3adb3" cx="270.688" cy="-139.697" rx="4" ry="4"/>
<polygon fill="#b3adb3" stroke="#b3adb3" points="270.688,-118.104 275.188,-108.104 270.688,-113.104 270.688,-108.104 270.688,-108.104 270.688,-108.104 270.688,-113.104 266.188,-108.104 270.688,-118.104 270.688,-118.104"/>
</g>
<!-- MembershipApplication&#45;&gt;UploadedFile -->
<g id="edge6" class="edge"><title>MembershipApplication&#45;&gt;UploadedFile</title>
<path fill="none" stroke="#c6f2f2" d="M296.96,-66.8424C306.514,-58.7854 317.317,-49.6743 326.913,-41.581"/>
<ellipse fill="none" stroke="#c6f2f2" cx="293.837" cy="-69.4761" rx="4.00002" ry="4.00002"/>
<polygon fill="#c6f2f2" stroke="#c6f2f2" points="326.992,-41.5147 337.537,-38.5076 330.814,-38.2912 334.636,-35.0676 334.636,-35.0676 334.636,-35.0676 330.814,-38.2912 331.735,-31.6277 326.992,-41.5147 326.992,-41.5147"/>
</g>
<!-- Region&#45;&gt;Company -->
<g id="edge8" class="edge"><title>Region&#45;&gt;Company</title>
<path fill="none" stroke="#dcb5c2" d="M314.883,-211.338C307.836,-203.631 299.861,-194.908 292.645,-187.015"/>
<ellipse fill="none" stroke="#dcb5c2" cx="317.785" cy="-214.513" rx="4.00002" ry="4.00002"/>
<polygon fill="#dcb5c2" stroke="#dcb5c2" points="292.491,-186.847 289.065,-176.431 289.117,-183.157 285.743,-179.467 285.743,-179.467 285.743,-179.467 289.117,-183.157 282.422,-182.504 292.491,-186.847 292.491,-186.847"/>
</g>
<!-- User&#45;&gt;MembershipApplication -->
<g id="edge11" class="edge"><title>User&#45;&gt;MembershipApplication</title>
<path fill="none" stroke="#8aa730" d="M345.934,-143.672C332.909,-134.555 316.784,-123.267 302.807,-113.483"/>
<ellipse fill="none" stroke="#8aa730" cx="349.533" cy="-146.192" rx="4.00002" ry="4.00002"/>
<polygon fill="#8aa730" stroke="#8aa730" points="302.62,-113.353 297.009,-103.932 298.524,-110.485 294.428,-107.618 294.428,-107.618 294.428,-107.618 298.524,-110.485 291.847,-111.305 302.62,-113.353 302.62,-113.353"/>
</g>
</g>
</svg>
