<?xml version="1.0" encoding="UTF-8" standalone="no"?>
<!DOCTYPE svg PUBLIC "-//W3C//DTD SVG 1.1//EN"
 "http://www.w3.org/Graphics/SVG/1.1/DTD/svg11.dtd">
<!-- Generated by graphviz version 2.38.0 (20140413.2041)
 -->
<!-- Title: models_diagram Pages: 1 -->
<svg width="815pt" height="923pt"
 viewBox="0.00 0.00 815.36 923.00" xmlns="http://www.w3.org/2000/svg" xmlns:xlink="http://www.w3.org/1999/xlink">
<g id="graph0" class="graph" transform="scale(1 1) rotate(0) translate(4 919)">
<title>models_diagram</title>
<polygon fill="none" stroke="none" points="-4,4 -4,-919 811.359,-919 811.359,4 -4,4"/>
<!-- _diagram_info -->
<g id="node1" class="node"><title>_diagram_info</title>
<text text-anchor="start" x="94.4244" y="-900.6" font-family="Times,serif" font-size="13.00">Models diagram</text>
<text text-anchor="start" x="94.4244" y="-887.6" font-family="Times,serif" font-size="13.00">Date: Jan 06 2017 &#45; 10:26</text>
<text text-anchor="start" x="94.4244" y="-874.6" font-family="Times,serif" font-size="13.00">Migration version: 20161228185350</text>
<text text-anchor="start" x="94.4244" y="-861.6" font-family="Times,serif" font-size="13.00">Generated by RailRoady 1.5.2</text>
<text text-anchor="start" x="94.4244" y="-848.6" font-family="Times,serif" font-size="13.00">http://railroady.prestonlee.com</text>
</g>
<!-- ApplicationRecord -->
<g id="node2" class="node"><title>ApplicationRecord</title>
<ellipse fill="none" stroke="black" cx="389.112" cy="-878.5" rx="77.2916" ry="18"/>
<text text-anchor="middle" x="389.112" y="-874.3" font-family="Times,serif" font-size="14.00">ApplicationRecord</text>
</g>
<!-- BusinessCategory -->
<g id="node3" class="node"><title>BusinessCategory</title>
<path fill="none" stroke="black" d="M49.2498,-705.5C49.2498,-705.5 272.974,-705.5 272.974,-705.5 278.974,-705.5 284.974,-711.5 284.974,-717.5 284.974,-717.5 284.974,-793.5 284.974,-793.5 284.974,-799.5 278.974,-805.5 272.974,-805.5 272.974,-805.5 49.2498,-805.5 49.2498,-805.5 43.2498,-805.5 37.2498,-799.5 37.2498,-793.5 37.2498,-793.5 37.2498,-717.5 37.2498,-717.5 37.2498,-711.5 43.2498,-705.5 49.2498,-705.5"/>
<text text-anchor="middle" x="161.112" y="-790.3" font-family="Times,serif" font-size="14.00">BusinessCategory</text>
<polyline fill="none" stroke="black" points="37.2498,-783.5 284.974,-783.5 "/>
<text text-anchor="start" x="45.2498" y="-768.3" font-family="Times,serif" font-size="14.00">id :integer</text>
<text text-anchor="start" x="45.2498" y="-754.3" font-family="Times,serif" font-size="14.00">name :character varying</text>
<text text-anchor="start" x="45.2498" y="-740.3" font-family="Times,serif" font-size="14.00">description :character varying</text>
<text text-anchor="start" x="45.2498" y="-726.3" font-family="Times,serif" font-size="14.00">created_at :timestamp without time zone</text>
<text text-anchor="start" x="45.2498" y="-712.3" font-family="Times,serif" font-size="14.00">updated_at :timestamp without time zone</text>
</g>
<!-- ApplicationRecord&#45;&gt;BusinessCategory -->
<g id="edge3" class="edge"><title>ApplicationRecord&#45;&gt;BusinessCategory</title>
<path fill="none" stroke="black" d="M359.305,-861.681C332.387,-847.396 291.32,-825.602 253.535,-805.549"/>
</g>
<!-- Company -->
<g id="node4" class="node"><title>Company</title>
<path fill="none" stroke="black" d="M201.25,-442.5C201.25,-442.5 424.974,-442.5 424.974,-442.5 430.974,-442.5 436.974,-448.5 436.974,-454.5 436.974,-454.5 436.974,-642.5 436.974,-642.5 436.974,-648.5 430.974,-654.5 424.974,-654.5 424.974,-654.5 201.25,-654.5 201.25,-654.5 195.25,-654.5 189.25,-648.5 189.25,-642.5 189.25,-642.5 189.25,-454.5 189.25,-454.5 189.25,-448.5 195.25,-442.5 201.25,-442.5"/>
<text text-anchor="middle" x="313.112" y="-639.3" font-family="Times,serif" font-size="14.00">Company</text>
<polyline fill="none" stroke="black" points="189.25,-632.5 436.974,-632.5 "/>
<text text-anchor="start" x="197.25" y="-617.3" font-family="Times,serif" font-size="14.00">region_id :integer</text>
<text text-anchor="start" x="197.25" y="-603.3" font-family="Times,serif" font-size="14.00">name :character varying</text>
<text text-anchor="start" x="197.25" y="-589.3" font-family="Times,serif" font-size="14.00">company_number :character varying</text>
<text text-anchor="start" x="197.25" y="-575.3" font-family="Times,serif" font-size="14.00">phone_number :character varying</text>
<text text-anchor="start" x="197.25" y="-561.3" font-family="Times,serif" font-size="14.00">email :character varying</text>
<text text-anchor="start" x="197.25" y="-547.3" font-family="Times,serif" font-size="14.00">street :character varying</text>
<text text-anchor="start" x="197.25" y="-533.3" font-family="Times,serif" font-size="14.00">post_code :character varying</text>
<text text-anchor="start" x="197.25" y="-519.3" font-family="Times,serif" font-size="14.00">city :character varying</text>
<text text-anchor="start" x="197.25" y="-505.3" font-family="Times,serif" font-size="14.00">old_region :character varying</text>
<text text-anchor="start" x="197.25" y="-491.3" font-family="Times,serif" font-size="14.00">website :character varying</text>
<text text-anchor="start" x="197.25" y="-477.3" font-family="Times,serif" font-size="14.00">created_at :timestamp without time zone</text>
<text text-anchor="start" x="197.25" y="-463.3" font-family="Times,serif" font-size="14.00">updated_at :timestamp without time zone</text>
<text text-anchor="start" x="197.25" y="-449.3" font-family="Times,serif" font-size="14.00">id :integer</text>
</g>
<!-- ApplicationRecord&#45;&gt;Company -->
<g id="edge5" class="edge"><title>ApplicationRecord&#45;&gt;Company</title>
<path fill="none" stroke="black" d="M370.993,-860.918C357.682,-847.524 340.511,-827.432 332.112,-806 313.498,-758.501 307.714,-702.31 307.016,-654.647"/>
</g>
<!-- MembershipApplication -->
<g id="node5" class="node"><title>MembershipApplication</title>
<path fill="none" stroke="black" d="M201.25,-179.5C201.25,-179.5 424.974,-179.5 424.974,-179.5 430.974,-179.5 436.974,-185.5 436.974,-191.5 436.974,-191.5 436.974,-379.5 436.974,-379.5 436.974,-385.5 430.974,-391.5 424.974,-391.5 424.974,-391.5 201.25,-391.5 201.25,-391.5 195.25,-391.5 189.25,-385.5 189.25,-379.5 189.25,-379.5 189.25,-191.5 189.25,-191.5 189.25,-185.5 195.25,-179.5 201.25,-179.5"/>
<text text-anchor="middle" x="313.112" y="-376.3" font-family="Times,serif" font-size="14.00">MembershipApplication</text>
<polyline fill="none" stroke="black" points="189.25,-369.5 436.974,-369.5 "/>
<text text-anchor="start" x="197.25" y="-354.3" font-family="Times,serif" font-size="14.00">state :character varying</text>
<text text-anchor="start" x="197.25" y="-340.3" font-family="Times,serif" font-size="14.00">company_number :character varying</text>
<text text-anchor="start" x="197.25" y="-326.3" font-family="Times,serif" font-size="14.00">phone_number :character varying</text>
<text text-anchor="start" x="197.25" y="-312.3" font-family="Times,serif" font-size="14.00">created_at :timestamp without time zone</text>
<text text-anchor="start" x="197.25" y="-298.3" font-family="Times,serif" font-size="14.00">updated_at :timestamp without time zone</text>
<text text-anchor="start" x="197.25" y="-284.3" font-family="Times,serif" font-size="14.00">user_id :integer</text>
<text text-anchor="start" x="197.25" y="-270.3" font-family="Times,serif" font-size="14.00">status :character varying</text>
<text text-anchor="start" x="197.25" y="-256.3" font-family="Times,serif" font-size="14.00">first_name :character varying</text>
<text text-anchor="start" x="197.25" y="-242.3" font-family="Times,serif" font-size="14.00">last_name :character varying</text>
<text text-anchor="start" x="197.25" y="-228.3" font-family="Times,serif" font-size="14.00">contact_email :character varying</text>
<text text-anchor="start" x="197.25" y="-214.3" font-family="Times,serif" font-size="14.00">company_id :integer</text>
<text text-anchor="start" x="197.25" y="-200.3" font-family="Times,serif" font-size="14.00">membership_number :character varying</text>
<text text-anchor="start" x="197.25" y="-186.3" font-family="Times,serif" font-size="14.00">id :integer</text>
</g>
<!-- ApplicationRecord&#45;&gt;MembershipApplication -->
<g id="edge7" class="edge"><title>ApplicationRecord&#45;&gt;MembershipApplication</title>
<path fill="none" stroke="black" d="M357.137,-861.959C341.238,-854.842 321.528,-846.915 303.112,-842 243.564,-826.106 68.7662,-852.323 28.1121,-806 -55.7843,-710.405 68.8031,-531.518 145.112,-428 157.783,-410.811 172.95,-394.371 188.914,-379.175"/>
</g>
<!-- Region -->
<g id="node6" class="node"><title>Region</title>
<path fill="none" stroke="black" d="M353.25,-705.5C353.25,-705.5 576.974,-705.5 576.974,-705.5 582.974,-705.5 588.974,-711.5 588.974,-717.5 588.974,-717.5 588.974,-793.5 588.974,-793.5 588.974,-799.5 582.974,-805.5 576.974,-805.5 576.974,-805.5 353.25,-805.5 353.25,-805.5 347.25,-805.5 341.25,-799.5 341.25,-793.5 341.25,-793.5 341.25,-717.5 341.25,-717.5 341.25,-711.5 347.25,-705.5 353.25,-705.5"/>
<text text-anchor="middle" x="465.112" y="-790.3" font-family="Times,serif" font-size="14.00">Region</text>
<polyline fill="none" stroke="black" points="341.25,-783.5 588.974,-783.5 "/>
<text text-anchor="start" x="349.25" y="-768.3" font-family="Times,serif" font-size="14.00">id :integer</text>
<text text-anchor="start" x="349.25" y="-754.3" font-family="Times,serif" font-size="14.00">name :character varying</text>
<text text-anchor="start" x="349.25" y="-740.3" font-family="Times,serif" font-size="14.00">code :character varying</text>
<text text-anchor="start" x="349.25" y="-726.3" font-family="Times,serif" font-size="14.00">created_at :timestamp without time zone</text>
<text text-anchor="start" x="349.25" y="-712.3" font-family="Times,serif" font-size="14.00">updated_at :timestamp without time zone</text>
</g>
<!-- ApplicationRecord&#45;&gt;Region -->
<g id="edge9" class="edge"><title>ApplicationRecord&#45;&gt;Region</title>
<path fill="none" stroke="black" d="M399.84,-860.42C408.801,-846.154 422.038,-825.079 434.254,-805.63"/>
</g>
<!-- UploadedFile -->
<g id="node7" class="node"><title>UploadedFile</title>
<path fill="none" stroke="black" d="M412.595,-0.5C412.595,-0.5 701.63,-0.5 701.63,-0.5 707.63,-0.5 713.63,-6.5 713.63,-12.5 713.63,-12.5 713.63,-130.5 713.63,-130.5 713.63,-136.5 707.63,-142.5 701.63,-142.5 701.63,-142.5 412.595,-142.5 412.595,-142.5 406.595,-142.5 400.595,-136.5 400.595,-130.5 400.595,-130.5 400.595,-12.5 400.595,-12.5 400.595,-6.5 406.595,-0.5 412.595,-0.5"/>
<text text-anchor="middle" x="557.112" y="-127.3" font-family="Times,serif" font-size="14.00">UploadedFile</text>
<polyline fill="none" stroke="black" points="400.595,-120.5 713.63,-120.5 "/>
<text text-anchor="start" x="408.595" y="-105.3" font-family="Times,serif" font-size="14.00">membership_application_id :integer</text>
<text text-anchor="start" x="408.595" y="-91.3" font-family="Times,serif" font-size="14.00">created_at :timestamp without time zone</text>
<text text-anchor="start" x="408.595" y="-77.3" font-family="Times,serif" font-size="14.00">updated_at :timestamp without time zone</text>
<text text-anchor="start" x="408.595" y="-63.3" font-family="Times,serif" font-size="14.00">actual_file_file_name :character varying</text>
<text text-anchor="start" x="408.595" y="-49.3" font-family="Times,serif" font-size="14.00">actual_file_content_type :character varying</text>
<text text-anchor="start" x="408.595" y="-35.3" font-family="Times,serif" font-size="14.00">actual_file_file_size :integer</text>
<text text-anchor="start" x="408.595" y="-21.3" font-family="Times,serif" font-size="14.00">actual_file_updated_at :timestamp without time zone</text>
<text text-anchor="start" x="408.595" y="-7.3" font-family="Times,serif" font-size="14.00">id :integer</text>
</g>
<!-- ApplicationRecord&#45;&gt;UploadedFile -->
<g id="edge10" class="edge"><title>ApplicationRecord&#45;&gt;UploadedFile</title>
<path fill="none" stroke="black" d="M452.023,-867.978C547.74,-849.51 724.963,-798.56 783.112,-669 866.662,-482.847 712.876,-255.662 620.109,-142.937"/>
</g>
<!-- User -->
<g id="node8" class="node"><title>User</title>
<path fill="none" stroke="black" d="M466.477,-428.5C466.477,-428.5 761.747,-428.5 761.747,-428.5 767.747,-428.5 773.747,-434.5 773.747,-440.5 773.747,-440.5 773.747,-656.5 773.747,-656.5 773.747,-662.5 767.747,-668.5 761.747,-668.5 761.747,-668.5 466.477,-668.5 466.477,-668.5 460.477,-668.5 454.477,-662.5 454.477,-656.5 454.477,-656.5 454.477,-440.5 454.477,-440.5 454.477,-434.5 460.477,-428.5 466.477,-428.5"/>
<text text-anchor="middle" x="614.112" y="-653.3" font-family="Times,serif" font-size="14.00">User</text>
<polyline fill="none" stroke="black" points="454.477,-646.5 773.747,-646.5 "/>
<text text-anchor="start" x="462.477" y="-631.3" font-family="Times,serif" font-size="14.00">is_member :boolean</text>
<text text-anchor="start" x="462.477" y="-617.3" font-family="Times,serif" font-size="14.00">email :character varying</text>
<text text-anchor="start" x="462.477" y="-603.3" font-family="Times,serif" font-size="14.00">encrypted_password :character varying</text>
<text text-anchor="start" x="462.477" y="-589.3" font-family="Times,serif" font-size="14.00">reset_password_token :character varying</text>
<text text-anchor="start" x="462.477" y="-575.3" font-family="Times,serif" font-size="14.00">reset_password_sent_at :timestamp without time zone</text>
<text text-anchor="start" x="462.477" y="-561.3" font-family="Times,serif" font-size="14.00">remember_created_at :timestamp without time zone</text>
<text text-anchor="start" x="462.477" y="-547.3" font-family="Times,serif" font-size="14.00">sign_in_count :integer</text>
<text text-anchor="start" x="462.477" y="-533.3" font-family="Times,serif" font-size="14.00">current_sign_in_at :timestamp without time zone</text>
<text text-anchor="start" x="462.477" y="-519.3" font-family="Times,serif" font-size="14.00">last_sign_in_at :timestamp without time zone</text>
<text text-anchor="start" x="462.477" y="-505.3" font-family="Times,serif" font-size="14.00">current_sign_in_ip :inet</text>
<text text-anchor="start" x="462.477" y="-491.3" font-family="Times,serif" font-size="14.00">last_sign_in_ip :inet</text>
<text text-anchor="start" x="462.477" y="-477.3" font-family="Times,serif" font-size="14.00">created_at :timestamp without time zone</text>
<text text-anchor="start" x="462.477" y="-463.3" font-family="Times,serif" font-size="14.00">updated_at :timestamp without time zone</text>
<text text-anchor="start" x="462.477" y="-449.3" font-family="Times,serif" font-size="14.00">admin :boolean</text>
<text text-anchor="start" x="462.477" y="-435.3" font-family="Times,serif" font-size="14.00">id :integer</text>
</g>
<!-- ApplicationRecord&#45;&gt;User -->
<g id="edge12" class="edge"><title>ApplicationRecord&#45;&gt;User</title>
<path fill="none" stroke="black" d="M462.206,-872.551C508.839,-865.246 566.302,-847.694 598.112,-806 627.409,-767.601 634.79,-715.813 633.551,-668.825"/>
</g>
<!-- BusinessCategory&#45;&gt;Company -->
<g id="edge2" class="edge"><title>BusinessCategory&#45;&gt;Company</title>
<path fill="none" stroke="#2d4619" d="M203.546,-697.27C211.579,-686.436 220.239,-674.756 229.045,-662.88"/>
<polygon fill="#2d4619" stroke="#2d4619" points="203.476,-697.365 193.905,-702.717 200.498,-701.381 197.52,-705.397 197.52,-705.397 197.52,-705.397 200.498,-701.381 201.135,-708.078 203.476,-697.365 203.476,-697.365"/>
<polygon fill="#2d4619" stroke="#2d4619" points="229.203,-662.667 238.774,-657.315 232.181,-658.651 235.159,-654.634 235.159,-654.634 235.159,-654.634 232.181,-658.651 231.544,-651.954 229.203,-662.667 229.203,-662.667"/>
</g>
<!-- BusinessCategory&#45;&gt;MembershipApplication -->
<g id="edge1" class="edge"><title>BusinessCategory&#45;&gt;MembershipApplication</title>
<path fill="none" stroke="#41897d" d="M152.838,-695.339C145.977,-627.734 142.601,-515.191 180.112,-428 184.201,-418.495 189.222,-409.235 194.891,-400.299"/>
<polygon fill="#41897d" stroke="#41897d" points="152.849,-695.443 149.442,-705.867 153.383,-700.415 153.917,-705.386 153.917,-705.386 153.917,-705.386 153.383,-700.415 158.391,-704.906 152.849,-695.443 152.849,-695.443"/>
<polygon fill="#41897d" stroke="#41897d" points="194.983,-400.161 204.265,-394.322 197.75,-395.996 200.517,-391.832 200.517,-391.832 200.517,-391.832 197.75,-395.996 196.769,-389.342 194.983,-400.161 194.983,-400.161"/>
</g>
<!-- Company&#45;&gt;MembershipApplication -->
<g id="edge4" class="edge"><title>Company&#45;&gt;MembershipApplication</title>
<path fill="none" stroke="#528599" d="M313.112,-434.201C313.112,-423.512 313.112,-412.666 313.112,-401.956"/>
<ellipse fill="none" stroke="#528599" cx="313.112" cy="-438.47" rx="4" ry="4"/>
<polygon fill="#528599" stroke="#528599" points="313.112,-401.74 317.612,-391.74 313.112,-396.74 313.112,-391.74 313.112,-391.74 313.112,-391.74 313.112,-396.74 308.612,-391.74 313.112,-401.74 313.112,-401.74"/>
</g>
<!-- MembershipApplication&#45;&gt;UploadedFile -->
<g id="edge6" class="edge"><title>MembershipApplication&#45;&gt;UploadedFile</title>
<path fill="none" stroke="#959559" d="M440.105,-174.162C449.753,-165.779 459.359,-157.433 468.682,-149.333"/>
<ellipse fill="none" stroke="#959559" cx="437.059" cy="-176.808" rx="4.00002" ry="4.00002"/>
<polygon fill="#959559" stroke="#959559" points="468.892,-149.15 479.392,-145.989 472.666,-145.871 476.441,-142.592 476.441,-142.592 476.441,-142.592 472.666,-145.871 473.489,-139.195 468.892,-149.15 468.892,-149.15"/>
</g>
<!-- Region&#45;&gt;Company -->
<g id="edge8" class="edge"><title>Region&#45;&gt;Company</title>
<path fill="none" stroke="#d5c985" d="M423.794,-698.775C415.439,-687.506 406.372,-675.278 397.146,-662.835"/>
<ellipse fill="none" stroke="#d5c985" cx="426.322" cy="-702.184" rx="4.00002" ry="4.00002"/>
<polygon fill="#d5c985" stroke="#d5c985" points="397.021,-662.667 394.68,-651.954 394.043,-658.651 391.065,-654.634 391.065,-654.634 391.065,-654.634 394.043,-658.651 387.451,-657.315 397.021,-662.667 397.021,-662.667"/>
</g>
<!-- User&#45;&gt;MembershipApplication -->
<g id="edge11" class="edge"><title>User&#45;&gt;MembershipApplication</title>
<path fill="none" stroke="#c6b57a" d="M470.533,-423.001C461.122,-414.841 451.676,-406.65 442.341,-398.555"/>
<ellipse fill="none" stroke="#c6b57a" cx="473.802" cy="-425.836" rx="4.00002" ry="4.00002"/>
<polygon fill="#c6b57a" stroke="#c6b57a" points="442.084,-398.333 437.477,-388.382 438.306,-395.057 434.529,-391.782 434.529,-391.782 434.529,-391.782 438.306,-395.057 431.581,-395.181 442.084,-398.333 442.084,-398.333"/>
</g>
</g>
</svg>
